{
  "accessors": [
    {
      "bufferView": 3,
      "componentType": 5126,
      "count": 4642,
      "max": [
        387.64620971679688,
        387.5595703125,
        386.74453735351562
      ],
      "min": [
        -387.64620971679688,
        -387.5595703125,
        -386.74453735351562
      ],
      "type": "VEC3"
    },
    {
      "bufferView": 3,
      "byteOffset": 55704,
      "componentType": 5126,
      "count": 4642,
      "max": [
        0.99953341484069824,
        0.9995110034942627,
        0.999583899974823
      ],
      "min": [
        -0.99953341484069824,
        -0.9995110034942627,
        -0.99930214881896973
      ],
      "type": "VEC3"
    },
    {
      "bufferView": 4,
      "componentType": 5126,
      "count": 4642,
      "max": [
        1,
        0.99333387613296509,
        0.96268159151077271,
        1
      ],
      "min": [
        -0.99303531646728516,
        -0.99333393573760986,
        -0.99999946355819702,
        -1
      ],
      "type": "VEC4"
    },
    {
      "bufferView": 2,
      "componentType": 5126,
      "count": 4642,
      "max": [
        0.99695253372192383,
        0.99691188335418701
      ],
      "min": [
        0.0030474788509309292,
        0.0030880530830472708
      ],
      "type": "VEC2"
    },
    {
      "bufferView": 1,
      "componentType": 5125,
      "count": 11202,
      "max": [
        4641
      ],
      "min": [
        0
      ],
      "type": "SCALAR"
    },
    {
      "bufferView": 5,
      "componentType": 5126,
      "count": 3,
      "max": [
        1,
        0,
        0,
        0,
        0,
        1,
        0,
        0,
        0,
        0,
        1,
        0,
        0,
        0,
        0,
        1
      ],
      "min": [
        0.0099999997764825821,
        0,
        0,
        0,
        0,
        0.0099999997764825821,
        0,
        0,
        0,
        0,
        0.0099999997764825821,
        0,
        0,
        0,
        0,
        1
      ],
      "type": "MAT4"
    },
    {
      "bufferView": 0,
      "componentType": 5123,
      "count": 4642,
      "max": [
        1,
        1,
        1,
        1
      ],
      "min": [
        1,
        1,
        1,
        1
      ],
      "type": "VEC4"
    },
    {
      "bufferView": 4,
      "byteOffset": 74272,
      "componentType": 5126,
      "count": 4642,
      "max": [
        1,
        0,
        0,
        0
      ],
      "min": [
        1,
        0,
        0,
        0
      ],
      "type": "VEC4"
    },
    {
      "bufferView": 6,
      "componentType": 5126,
      "count": 54,
      "max": [
        1.0416666269302368
      ],
      "min": [
        0
      ],
      "type": "SCALAR"
    },
    {
      "bufferView": 7,
      "componentType": 5126,
      "count": 54,
      "max": [
        0,
        4.2351647362715017e-22,
        15.082321166992188
      ],
      "min": [
        0,
        -1.3234889800848443e-23,
        -0.66663467884063721
      ],
      "type": "VEC3"
    },
    {
      "bufferView": 6,
      "byteOffset": 216,
      "componentType": 5126,
      "count": 43,
      "max": [
        1.0416666269302368
      ],
      "min": [
        0
      ],
      "type": "SCALAR"
    },
    {
      "bufferView": 7,
      "byteOffset": 648,
      "componentType": 5126,
      "count": 43,
      "max": [
        1,
        1,
        1
      ],
      "min": [
        0.89999997615814209,
        0.89999997615814209,
        0.89999997615814209
      ],
      "type": "VEC3"
    },
    {
      "bufferView": 6,
      "byteOffset": 388,
      "componentType": 5126,
      "count": 87,
      "max": [
        1.6666666269302368
      ],
      "min": [
        0
      ],
      "type": "SCALAR"
    },
    {
      "bufferView": 8,
      "componentType": 5126,
      "count": 87,
      "max": [
        0.7071068286895752,
        0.49999994039535522,
        0.7071068286895752,
        0.70710670948028564
      ],
      "min": [
        -0.48524746298789978,
        -0.70710670948028564,
        -0.5,
        -0.485247403383255
      ],
      "type": "VEC4"
    }
  ],
  "animations": [
    {
      "channels": [
        {
          "sampler": 0,
          "target": {
            "node": 8,
            "path": "translation"
          }
        },
        {
          "sampler": 1,
          "target": {
            "node": 8,
            "path": "scale"
          }
        }
      ],
      "name": "Armature|Bounce",
      "samplers": [
        {
          "input": 8,
          "interpolation": "LINEAR",
          "output": 9
        },
        {
          "input": 10,
          "interpolation": "LINEAR",
          "output": 11
        }
      ]
    },
    {
      "channels": [
        {
          "sampler": 0,
          "target": {
            "node": 8,
            "path": "rotation"
          }
        }
      ],
      "name": "Armature|Roll",
      "samplers": [
        {
          "input": 12,
          "interpolation": "LINEAR",
          "output": 13
        }
      ]
    }
  ],
  "asset": {
    "extras": {
      "author": "Blender3D (https://sketchfab.com/Blender3D)",
      "license": "CC-BY-4.0 (http://creativecommons.org/licenses/by/4.0/)",
      "source": "https://sketchfab.com/models/9e865bb2fa4c49e8a7e04e02972a8b69",
      "title": "Cheap Soccer Ball"
    },
    "generator": "Sketchfab-3.26.6",
    "version": "2.0"
  },
  "bufferViews": [
    {
      "buffer": 0,
      "byteLength": 37136,
      "byteOffset": 0,
      "byteStride": 8,
      "name": "shortBufferViews",
      "target": 34962
    },
    {
      "buffer": 0,
      "byteLength": 44808,
      "byteOffset": 37136,
      "name": "floatBufferViews",
      "target": 34963
    },
    {
      "buffer": 0,
      "byteLength": 37136,
      "byteOffset": 81944,
      "byteStride": 8,
      "name": "floatBufferViews",
      "target": 34962
    },
    {
      "buffer": 0,
      "byteLength": 111408,
      "byteOffset": 119080,
      "byteStride": 12,
      "name": "floatBufferViews",
      "target": 34962
    },
    {
      "buffer": 0,
      "byteLength": 148544,
      "byteOffset": 230488,
      "byteStride": 16,
      "name": "floatBufferViews",
      "target": 34962
    },
    {
      "buffer": 0,
      "byteLength": 192,
      "byteOffset": 379032,
      "byteStride": 64,
      "name": "floatBufferViews"
    },
    {
      "buffer": 0,
      "byteLength": 736,
      "byteOffset": 379224,
      "name": "floatBufferViews"
    },
    {
      "buffer": 0,
      "byteLength": 1164,
      "byteOffset": 379960,
      "byteStride": 12,
      "name": "floatBufferViews"
    },
    {
      "buffer": 0,
      "byteLength": 1392,
      "byteOffset": 381124,
      "byteStride": 16,
      "name": "floatBufferViews"
    }
  ],
  "buffers": [
    {
      "byteLength": 382516,
      "uri": "scene.bin"
    }
  ],
  "images": [
    {
      "uri": "textures/Scene_-_Root_baseColor.png"
    },
    {
      "uri": "textures/Scene_-_Root_normal.png"
    },
    {
      "uri": "textures/Scene_-_Root_metallicRoughness.png"
    }
  ],
  "materials": [
    {
      "doubleSided": true,
      "name": "Scene_-_Root",
      "normalTexture": {
        "index": 1,
        "scale": 0.42666667590000001,
        "texCoord": 0
      },
      "occlusionTexture": {
        "index": 2,
        "strength": 1,
        "texCoord": 0
      },
      "pbrMetallicRoughness": {
        "baseColorFactor": [
          1,
          1,
          1,
          1
        ],
        "baseColorTexture": {
          "index": 0,
          "texCoord": 0
        },
        "metallicFactor": 0.24484849410000001,
        "metallicRoughnessTexture": {
          "index": 2,
          "texCoord": 0
        },
        "roughnessFactor": 1
      }
    }
  ],
  "meshes": [
    {
      "name": "Soccer-Ball-rig__0",
      "primitives": [
        {
          "attributes": {
            "JOINTS_0": 6,
            "NORMAL": 1,
            "POSITION": 0,
            "TANGENT": 2,
            "TEXCOORD_0": 3,
            "WEIGHTS_0": 7
          },
          "indices": 4,
          "material": 0,
          "mode": 4
        }
      ]
    }
  ],
  "nodes": [
    {
      "children": [
        1
      ],
      "name": "RootNode (gltf orientation matrix)",
      "rotation": [
        -0.70710678118654746,
        -0,
        -0,
        0.70710678118654757
      ]
    },
    {
      "children": [
        2
      ],
      "name": "RootNode (model correction matrix)"
    },
    {
      "children": [
        3
      ],
      "matrix": [
        1,
        0,
        0,
        0,
        0,
        0,
        1,
        0,
        0,
        -1,
        0,
        0,
        0,
        0,
        0,
        1
      ],
      "name": "ball.fbx"
    },
    {
      "children": [
        4
      ],
      "name": ""
    },
    {
      "children": [
        5,
        12
      ],
      "name": "RootNode"
    },
    {
      "children": [
        6
      ],
      "name": "Armature",
      "rotation": [
        -0.7071068286895752,
        0,
        0,
        0.70710670948028564
      ],
      "scale": [
        100,
        100,
        100
      ]
    },
    {
      "children": [
        7,
        11,
        10
      ],
      "name": ""
    },
    {
      "children": [
        8
      ],
      "name": "_rootJoint"
    },
    {
      "children": [
        9
      ],
      "name": "Bone_00",
      "rotation": [
        0.7071068286895752,
        0,
        0,
        0.70710670948028564
      ],
      "translation": [
        0,
        -3.3087224502121107e-24,
        -0.12704014778137207
      ]
    },
    {
      "name": "Bone_end_01",
      "translation": [
        0,
        3.4303901195526123,
        0
      ]
    },
    {
      "matrix": [
        100,
        0,
        0,
        0,
        0,
        6.1232339957367661e-15,
        -100,
        0,
        0,
        100,
        6.1232339957367661e-15,
        0,
        0,
        0,
        0,
        1
      ],
      "name": ""
    },
    {
      "mesh": 0,
      "name": "",
      "skin": 0
    },
    {
      "name": "Soccer-Ball-rig",
      "rotation": [
        -0.7071068286895752,
        0,
        0,
        0.70710670948028564
      ],
      "scale": [
        100,
        100,
        100
      ]
    }
  ],
  "samplers": [
    {
      "magFilter": 9729,
      "minFilter": 9987,
      "wrapS": 10497,
      "wrapT": 10497
    }
  ],
  "scene": 0,
  "scenes": [
    {
      "name": "OSG_Scene",
      "nodes": [
        0
      ]
    }
  ],
  "skins": [
    {
      "inverseBindMatrices": 5,
      "joints": [
        7,
        8,
        9
      ],
      "skeleton": 7
    }
  ],
  "textures": [
    {
      "sampler": 0,
      "source": 0
    },
    {
      "sampler": 0,
      "source": 1
    },
    {
      "sampler": 0,
      "source": 2
    }
  ]
}

